<mxfile host="app.diagrams.net" modified="2023-04-06T07:38:53.620Z" agent="Mozilla/5.0 (Windows NT 10.0; Win64; x64) AppleWebKit/537.36 (KHTML, like Gecko) Chrome/112.0.0.0 Safari/537.36" etag="zhjRwSW8gAuuCV415Nde" version="21.1.4" type="device">
  <diagram name="Page-1" id="61djWspQ2eM6UkQTx8YS">
    <mxGraphModel dx="1723" dy="822" grid="1" gridSize="10" guides="1" tooltips="1" connect="1" arrows="1" fold="1" page="1" pageScale="1" pageWidth="827" pageHeight="1169" math="0" shadow="0">
      <root>
        <mxCell id="0" />
        <mxCell id="1" parent="0" />
        <mxCell id="BYNYWY0adCg34HCjVK7Y-8" value="&amp;nbsp;SISTEM PAKAR DIAGNOSA DINI PENYAKIT KOLESTROL MENGGUNAKAN METODE FORWARD CHAINING" style="swimlane;whiteSpace=wrap;html=1;startSize=40;" parent="1" vertex="1">
          <mxGeometry x="200" y="210" width="570" height="630" as="geometry" />
        </mxCell>
        <mxCell id="BYNYWY0adCg34HCjVK7Y-20" value="Melakukan diagnosa" style="ellipse;whiteSpace=wrap;html=1;" parent="BYNYWY0adCg34HCjVK7Y-8" vertex="1">
          <mxGeometry x="60" y="140" width="110" height="60" as="geometry" />
        </mxCell>
        <mxCell id="BYNYWY0adCg34HCjVK7Y-21" value="Melihat Info Penyakit" style="ellipse;whiteSpace=wrap;html=1;" parent="BYNYWY0adCg34HCjVK7Y-8" vertex="1">
          <mxGeometry x="160" y="200" width="110" height="60" as="geometry" />
        </mxCell>
        <mxCell id="BYNYWY0adCg34HCjVK7Y-24" value="Melihat informasi penggunaan" style="ellipse;whiteSpace=wrap;html=1;" parent="BYNYWY0adCg34HCjVK7Y-8" vertex="1">
          <mxGeometry x="147.5" y="270" width="105" height="60" as="geometry" />
        </mxCell>
        <mxCell id="BYNYWY0adCg34HCjVK7Y-25" value="Melihat menu tentang aplikasi" style="ellipse;whiteSpace=wrap;html=1;" parent="BYNYWY0adCg34HCjVK7Y-8" vertex="1">
          <mxGeometry x="30" y="300" width="110" height="60" as="geometry" />
        </mxCell>
        <mxCell id="BYNYWY0adCg34HCjVK7Y-31" value="input data pengguna" style="ellipse;whiteSpace=wrap;html=1;" parent="BYNYWY0adCg34HCjVK7Y-8" vertex="1">
          <mxGeometry x="290" y="150" width="96" height="60" as="geometry" />
        </mxCell>
        <mxCell id="BYNYWY0adCg34HCjVK7Y-29" value="&amp;lt;&amp;lt;include&amp;gt;&amp;gt;" style="endArrow=none;dashed=1;html=1;rounded=0;startArrow=open;startFill=0;entryX=1;entryY=0.5;entryDx=0;entryDy=0;exitX=0;exitY=0.5;exitDx=0;exitDy=0;" parent="BYNYWY0adCg34HCjVK7Y-8" source="BYNYWY0adCg34HCjVK7Y-31" target="BYNYWY0adCg34HCjVK7Y-20" edge="1">
          <mxGeometry width="50" height="50" relative="1" as="geometry">
            <mxPoint x="280" y="90" as="sourcePoint" />
            <mxPoint x="220" y="160" as="targetPoint" />
          </mxGeometry>
        </mxCell>
        <mxCell id="BYNYWY0adCg34HCjVK7Y-34" value="&amp;nbsp;Hasil diagnosa" style="ellipse;whiteSpace=wrap;html=1;" parent="BYNYWY0adCg34HCjVK7Y-8" vertex="1">
          <mxGeometry x="200" y="70" width="90" height="60" as="geometry" />
        </mxCell>
        <mxCell id="BYNYWY0adCg34HCjVK7Y-35" value="&amp;lt;&amp;lt;include&amp;gt;&amp;gt;" style="endArrow=none;dashed=1;html=1;rounded=0;entryX=0.033;entryY=0.7;entryDx=0;entryDy=0;startArrow=open;startFill=0;entryPerimeter=0;" parent="BYNYWY0adCg34HCjVK7Y-8" source="BYNYWY0adCg34HCjVK7Y-20" target="BYNYWY0adCg34HCjVK7Y-34" edge="1">
          <mxGeometry width="50" height="50" relative="1" as="geometry">
            <mxPoint x="200" y="280" as="sourcePoint" />
            <mxPoint x="250" y="230" as="targetPoint" />
          </mxGeometry>
        </mxCell>
        <mxCell id="BYNYWY0adCg34HCjVK7Y-37" value="Cetak hasil diagnosa" style="ellipse;whiteSpace=wrap;html=1;" parent="BYNYWY0adCg34HCjVK7Y-8" vertex="1">
          <mxGeometry x="386" y="50" width="90" height="50" as="geometry" />
        </mxCell>
        <mxCell id="BYNYWY0adCg34HCjVK7Y-36" value="&amp;lt;&amp;lt;extends&amp;gt;&amp;gt;" style="endArrow=none;dashed=1;html=1;rounded=0;exitX=1;exitY=0;exitDx=0;exitDy=0;startArrow=open;startFill=0;" parent="BYNYWY0adCg34HCjVK7Y-8" source="BYNYWY0adCg34HCjVK7Y-34" target="BYNYWY0adCg34HCjVK7Y-37" edge="1">
          <mxGeometry width="50" height="50" relative="1" as="geometry">
            <mxPoint x="200" y="280" as="sourcePoint" />
            <mxPoint x="180" y="80" as="targetPoint" />
          </mxGeometry>
        </mxCell>
        <mxCell id="BYNYWY0adCg34HCjVK7Y-38" value="Login" style="ellipse;whiteSpace=wrap;html=1;" parent="BYNYWY0adCg34HCjVK7Y-8" vertex="1">
          <mxGeometry x="210" y="500" width="90" height="60" as="geometry" />
        </mxCell>
        <mxCell id="BYNYWY0adCg34HCjVK7Y-40" value="Mengelola data penyakit" style="ellipse;whiteSpace=wrap;html=1;" parent="BYNYWY0adCg34HCjVK7Y-8" vertex="1">
          <mxGeometry x="200" y="360" width="95" height="60" as="geometry" />
        </mxCell>
        <mxCell id="BYNYWY0adCg34HCjVK7Y-42" value="Mengelola data gejala" style="ellipse;whiteSpace=wrap;html=1;" parent="BYNYWY0adCg34HCjVK7Y-8" vertex="1">
          <mxGeometry x="200" y="430" width="100" height="60" as="geometry" />
        </mxCell>
        <mxCell id="BYNYWY0adCg34HCjVK7Y-44" value="Mengelo rule" style="ellipse;whiteSpace=wrap;html=1;" parent="BYNYWY0adCg34HCjVK7Y-8" vertex="1">
          <mxGeometry x="370" y="210" width="100" height="60" as="geometry" />
        </mxCell>
        <mxCell id="q4Pz-D-1atqg_bkgmLJ_-4" value="Mengelola data diagnosa" style="ellipse;whiteSpace=wrap;html=1;" parent="BYNYWY0adCg34HCjVK7Y-8" vertex="1">
          <mxGeometry x="360" y="300" width="95" height="60" as="geometry" />
        </mxCell>
        <mxCell id="um5oe-29CJBW0R58dBNC-3" value="melihat rule" style="ellipse;whiteSpace=wrap;html=1;" parent="BYNYWY0adCg34HCjVK7Y-8" vertex="1">
          <mxGeometry x="110" y="540" width="90" height="60" as="geometry" />
        </mxCell>
        <mxCell id="BYNYWY0adCg34HCjVK7Y-10" value="Admin" style="shape=umlActor;verticalLabelPosition=bottom;verticalAlign=top;html=1;outlineConnect=0;" parent="1" vertex="1">
          <mxGeometry x="797" y="660" width="30" height="60" as="geometry" />
        </mxCell>
        <mxCell id="BYNYWY0adCg34HCjVK7Y-17" value="Pasien" style="shape=umlActor;verticalLabelPosition=bottom;verticalAlign=top;html=1;outlineConnect=0;" parent="1" vertex="1">
          <mxGeometry x="120" y="340" width="30" height="60" as="geometry" />
        </mxCell>
        <mxCell id="BYNYWY0adCg34HCjVK7Y-19" value="" style="endArrow=none;html=1;rounded=0;exitX=1;exitY=0.3333333333333333;exitDx=0;exitDy=0;exitPerimeter=0;" parent="1" source="BYNYWY0adCg34HCjVK7Y-17" target="BYNYWY0adCg34HCjVK7Y-20" edge="1">
          <mxGeometry width="50" height="50" relative="1" as="geometry">
            <mxPoint x="390" y="480" as="sourcePoint" />
            <mxPoint x="370" y="370" as="targetPoint" />
          </mxGeometry>
        </mxCell>
        <mxCell id="BYNYWY0adCg34HCjVK7Y-22" value="" style="endArrow=none;html=1;rounded=0;exitX=1;exitY=0.3333333333333333;exitDx=0;exitDy=0;exitPerimeter=0;entryX=0;entryY=0.5;entryDx=0;entryDy=0;" parent="1" source="BYNYWY0adCg34HCjVK7Y-17" target="BYNYWY0adCg34HCjVK7Y-21" edge="1">
          <mxGeometry width="50" height="50" relative="1" as="geometry">
            <mxPoint x="390" y="480" as="sourcePoint" />
            <mxPoint x="440" y="430" as="targetPoint" />
          </mxGeometry>
        </mxCell>
        <mxCell id="BYNYWY0adCg34HCjVK7Y-23" value="" style="endArrow=none;html=1;rounded=0;exitX=1;exitY=0.3333333333333333;exitDx=0;exitDy=0;exitPerimeter=0;" parent="1" source="BYNYWY0adCg34HCjVK7Y-17" target="BYNYWY0adCg34HCjVK7Y-24" edge="1">
          <mxGeometry width="50" height="50" relative="1" as="geometry">
            <mxPoint x="390" y="480" as="sourcePoint" />
            <mxPoint x="310" y="520" as="targetPoint" />
          </mxGeometry>
        </mxCell>
        <mxCell id="BYNYWY0adCg34HCjVK7Y-26" value="" style="endArrow=none;html=1;rounded=0;exitX=1;exitY=0.3333333333333333;exitDx=0;exitDy=0;exitPerimeter=0;" parent="1" source="BYNYWY0adCg34HCjVK7Y-17" target="BYNYWY0adCg34HCjVK7Y-25" edge="1">
          <mxGeometry width="50" height="50" relative="1" as="geometry">
            <mxPoint x="160" y="440" as="sourcePoint" />
            <mxPoint x="440" y="420" as="targetPoint" />
          </mxGeometry>
        </mxCell>
        <mxCell id="BYNYWY0adCg34HCjVK7Y-39" value="" style="endArrow=none;html=1;rounded=0;exitX=0;exitY=0.3333333333333333;exitDx=0;exitDy=0;exitPerimeter=0;entryX=1;entryY=0.5;entryDx=0;entryDy=0;" parent="1" source="BYNYWY0adCg34HCjVK7Y-10" target="BYNYWY0adCg34HCjVK7Y-38" edge="1">
          <mxGeometry width="50" height="50" relative="1" as="geometry">
            <mxPoint x="480" y="360" as="sourcePoint" />
            <mxPoint x="530" y="310" as="targetPoint" />
          </mxGeometry>
        </mxCell>
        <mxCell id="BYNYWY0adCg34HCjVK7Y-41" value="" style="endArrow=none;html=1;rounded=0;exitX=0;exitY=0.3333333333333333;exitDx=0;exitDy=0;exitPerimeter=0;entryX=1;entryY=0.5;entryDx=0;entryDy=0;" parent="1" source="BYNYWY0adCg34HCjVK7Y-10" target="BYNYWY0adCg34HCjVK7Y-40" edge="1">
          <mxGeometry width="50" height="50" relative="1" as="geometry">
            <mxPoint x="480" y="430" as="sourcePoint" />
            <mxPoint x="530" y="380" as="targetPoint" />
          </mxGeometry>
        </mxCell>
        <mxCell id="BYNYWY0adCg34HCjVK7Y-43" value="" style="endArrow=none;html=1;rounded=0;entryX=0;entryY=0.3333333333333333;entryDx=0;entryDy=0;entryPerimeter=0;exitX=1;exitY=0.5;exitDx=0;exitDy=0;" parent="1" source="BYNYWY0adCg34HCjVK7Y-42" target="BYNYWY0adCg34HCjVK7Y-10" edge="1">
          <mxGeometry width="50" height="50" relative="1" as="geometry">
            <mxPoint x="480" y="430" as="sourcePoint" />
            <mxPoint x="530" y="380" as="targetPoint" />
          </mxGeometry>
        </mxCell>
        <mxCell id="BYNYWY0adCg34HCjVK7Y-45" value="" style="endArrow=none;html=1;rounded=0;exitX=1;exitY=0.5;exitDx=0;exitDy=0;entryX=0;entryY=0.3333333333333333;entryDx=0;entryDy=0;entryPerimeter=0;" parent="1" source="BYNYWY0adCg34HCjVK7Y-44" target="BYNYWY0adCg34HCjVK7Y-10" edge="1">
          <mxGeometry width="50" height="50" relative="1" as="geometry">
            <mxPoint x="490" y="540" as="sourcePoint" />
            <mxPoint x="540" y="490" as="targetPoint" />
          </mxGeometry>
        </mxCell>
        <mxCell id="q4Pz-D-1atqg_bkgmLJ_-2" value="Pakar" style="shape=umlActor;verticalLabelPosition=bottom;verticalAlign=top;html=1;outlineConnect=0;" parent="1" vertex="1">
          <mxGeometry x="80" y="640" width="30" height="60" as="geometry" />
        </mxCell>
        <mxCell id="q4Pz-D-1atqg_bkgmLJ_-5" value="" style="endArrow=none;html=1;rounded=0;entryX=0;entryY=0.3333333333333333;entryDx=0;entryDy=0;entryPerimeter=0;exitX=1;exitY=0.5;exitDx=0;exitDy=0;" parent="1" source="q4Pz-D-1atqg_bkgmLJ_-4" target="BYNYWY0adCg34HCjVK7Y-10" edge="1">
          <mxGeometry width="50" height="50" relative="1" as="geometry">
            <mxPoint x="430" y="530" as="sourcePoint" />
            <mxPoint x="480" y="480" as="targetPoint" />
          </mxGeometry>
        </mxCell>
        <mxCell id="q4Pz-D-1atqg_bkgmLJ_-6" value="" style="endArrow=none;html=1;rounded=0;exitX=0;exitY=0.5;exitDx=0;exitDy=0;entryX=0.667;entryY=0.333;entryDx=0;entryDy=0;entryPerimeter=0;" parent="1" source="BYNYWY0adCg34HCjVK7Y-38" target="q4Pz-D-1atqg_bkgmLJ_-2" edge="1">
          <mxGeometry width="50" height="50" relative="1" as="geometry">
            <mxPoint x="430" y="500" as="sourcePoint" />
            <mxPoint x="110" y="660" as="targetPoint" />
          </mxGeometry>
        </mxCell>
        <mxCell id="q4Pz-D-1atqg_bkgmLJ_-7" value="" style="endArrow=none;html=1;rounded=0;exitX=0;exitY=0.5;exitDx=0;exitDy=0;entryX=1;entryY=0.3333333333333333;entryDx=0;entryDy=0;entryPerimeter=0;" parent="1" source="BYNYWY0adCg34HCjVK7Y-40" target="q4Pz-D-1atqg_bkgmLJ_-2" edge="1">
          <mxGeometry width="50" height="50" relative="1" as="geometry">
            <mxPoint x="430" y="500" as="sourcePoint" />
            <mxPoint x="120" y="660" as="targetPoint" />
          </mxGeometry>
        </mxCell>
        <mxCell id="q4Pz-D-1atqg_bkgmLJ_-8" value="" style="endArrow=none;html=1;rounded=0;entryX=1;entryY=0.3333333333333333;entryDx=0;entryDy=0;entryPerimeter=0;" parent="1" source="BYNYWY0adCg34HCjVK7Y-42" target="q4Pz-D-1atqg_bkgmLJ_-2" edge="1">
          <mxGeometry width="50" height="50" relative="1" as="geometry">
            <mxPoint x="430" y="500" as="sourcePoint" />
            <mxPoint x="120" y="660" as="targetPoint" />
          </mxGeometry>
        </mxCell>
        <mxCell id="um5oe-29CJBW0R58dBNC-4" value="" style="endArrow=none;html=1;rounded=0;exitX=0;exitY=0.5;exitDx=0;exitDy=0;entryX=1;entryY=0.3333333333333333;entryDx=0;entryDy=0;entryPerimeter=0;" parent="1" source="um5oe-29CJBW0R58dBNC-3" target="q4Pz-D-1atqg_bkgmLJ_-2" edge="1">
          <mxGeometry width="50" height="50" relative="1" as="geometry">
            <mxPoint x="420" y="750" as="sourcePoint" />
            <mxPoint x="110" y="670" as="targetPoint" />
          </mxGeometry>
        </mxCell>
      </root>
    </mxGraphModel>
  </diagram>
</mxfile>
